*********** **** **** *** ******** *********** **** *** **********

*+* +*+*+* *+*+*+ *+* *+* *+* *+* *+* *+*+* *+* *+*

+*+ +*+ +*+*+ +*+ +*+ +*+ +*+ +*+ *+*+*+ +*+ +*+

+$+ +$+ +*+ +$+ +$++*++$++* *$* +$+ +$+ +*+ +$+ +$++*++$

+$+ +$+ +$+ +$+ +$+ +$+ +$+$ +$+ +$+ +$+$+$ +$+

$+$ $+$ $+$ $+$ $+$ $+$ $+$ $+$ $+$ $+$+$ $+$

$$$$$$$$$$$ $$$ $$$ $$$ $$$ $$$$$$$$ $$$$$$$$$$$ $$$ $$$$ $$$$$$$$$$









Another Fine Release Brought to you from - IMAGiNE





********************************************************************************************************************

Megamind 2010 SCR XViD AC3 - IMAGiNE

********************************************************************************************************************



Ripper ...........:IMAGiNE IMDB Rating.......:7.3/10

Video Codec.......:XVID Release Date......:05/11/10

Audio Codec.......:AC3 Theatre Date......:06/01/11

Audio Bitrate.....:192 Runtime...........:1h 35mn

Subtitles.........:NIL Language..........:ENGLISH

Resolution........:720 x 400 IMDb URL.......... http://www.imdb.com/title/tt1001526/



DETAILS:



Video

ID : 0

Format : MPEG-4 Visual

Format profile : Advanced Simple@L5

Format settings, BVOP : Yes

Format settings, QPel : No

Format settings, GMC : No warppoints

Format settings, Matrix : Default (H.263)

Muxing mode : Packed bitstream

Codec ID : XVID

Codec ID/Hint : XviD

Duration : 1h 35mn

Bit rate : 1 783 Kbps

Width : 720 pixels

Height : 400 pixels

Display aspect ratio : 16:9

Frame rate : 29.970 fps

Color space : YUV

Chroma subsampling : 4:2:0

Bit depth : 8 bits

Scan type : Progressive

Compression mode : Lossy

Bits/(Pixel*Frame) : 0.207

Stream size : 1.19 GiB (90%)

Writing library : XviD 1.1.2 (UTC 2006-11-01)



Audio

ID : 1

Format : AC-3

Format/Info : Audio Coding 3

Mode extension : CM (complete main)

Codec ID : 2000

Duration : 1h 35mn

Bit rate mode : Constant

Bit rate : 192 Kbps

Channel(s) : 2 channels

Channel positions : Front: L R

Sampling rate : 48.0 KHz

Bit depth : 16 bits

Compression mode : Lossy

Stream size : 131 MiB (10%)

Alignment : Aligned on interleaves

Interleave, duration : 33 ms (1.00 video frame)

Interleave, preload duration : 512 ms





SOURCES:



VIDEO:Megamind ......Thanks To"A Friend" for the vobs...

AUDIO:Megamind ......Thanks To"A Friend" for the vobs...



NOTES:



IMAGiNE bringing you another release..........Megamind 2010



Well heres a nice new year treat for ya all

We were sent the vobs of this from "A Good Friend" Thanks matey

We've cropped and resized and clean the video up the best we could,

but got to say this is a nice screener



Enjoy folks